<svg version="1.1" xmlns="http://www.w3.org/2000/svg" viewBox="0 0 1400.2394621666208 891.7920877029812" width="2800.4789243332416" height="1783.5841754059625" filter="invert(93%) hue-rotate(180deg)">
  <!-- svg-source:excalidraw -->
  
  <defs>
    <style class="style-fonts">
      @font-face {
        font-family: "Virgil";
        src: url("https://excalidraw.com/Virgil.woff2");
      }
      @font-face {
        font-family: "Cascadia";
        src: url("https://excalidraw.com/Cascadia.woff2");
      }
    </style>
  </defs>
  <rect x="0" y="0" width="1400.2394621666208" height="891.7920877029812" fill="#ffffff"></rect><g stroke-linecap="round" transform="translate(855.8572637712186 395.22695891592525) rotate(0 129.71053297525668 102.26901030411614)"><path d="M32 0 M32 0 C107.97 -1.5, 183.1 -2.23, 227.42 0 M32 0 C93.17 1.15, 155.23 1.17, 227.42 0 M227.42 0 C247.45 1.52, 260.44 11.96, 259.42 32 M227.42 0 C249.11 1.64, 259.69 11.33, 259.42 32 M259.42 32 C259.68 72.82, 258.79 109.85, 259.42 172.54 M259.42 32 C259.52 73.31, 259.85 115.09, 259.42 172.54 M259.42 172.54 C258.7 194.94, 248.25 205.72, 227.42 204.54 M259.42 172.54 C260.2 195.04, 246.89 204.16, 227.42 204.54 M227.42 204.54 C172.85 205.18, 119.04 202.52, 32 204.54 M227.42 204.54 C160.17 205.88, 93.55 205.75, 32 204.54 M32 204.54 C9.17 203.74, -0.91 195.25, 0 172.54 M32 204.54 C10.43 205.62, 0.15 193.09, 0 172.54 M0 172.54 C1.35 132.69, 0.2 94.09, 0 32 M0 172.54 C1.09 138.43, -0.47 105.71, 0 32 M0 32 C0.03 10.25, 11.36 -1.86, 32 0 M0 32 C1.26 9.17, 11.68 -1.28, 32 0" stroke="#000000" stroke-width="1" fill="none"></path></g><g transform="translate(880.9182341082687 483.1896509007654) rotate(0 91.69921875 11.5)"><text x="0" y="0" font-family="Helvetica, Segoe UI Emoji" font-size="20px" fill="#000000" text-anchor="start" style="white-space: pre;" direction="ltr" dominant-baseline="text-before-edge"> ChatGPT bot server</text></g><g transform="translate(401.58211934294377 10) rotate(0 180.09765625 34.5)"><text x="0" y="0" font-family="Helvetica, Segoe UI Emoji" font-size="20px" fill="#000000" text-anchor="start" style="white-space: pre;" direction="ltr" dominant-baseline="text-before-edge">Commands</text><text x="0" y="23" font-family="Helvetica, Segoe UI Emoji" font-size="20px" fill="#000000" text-anchor="start" style="white-space: pre;" direction="ltr" dominant-baseline="text-before-edge"></text><text x="0" y="46" font-family="Helvetica, Segoe UI Emoji" font-size="20px" fill="#000000" text-anchor="start" style="white-space: pre;" direction="ltr" dominant-baseline="text-before-edge">/gpt_random - generate random prompts</text></g><g transform="translate(401.746749319851 104.07873928591334) rotate(0 279.013671875 34.5)"><text x="0" y="0" font-family="Helvetica, Segoe UI Emoji" font-size="20px" fill="#000000" text-anchor="start" style="white-space: pre;" direction="ltr" dominant-baseline="text-before-edge">/gpt_complete - generate prompts based on a concept</text><text x="0" y="23" font-family="Helvetica, Segoe UI Emoji" font-size="20px" fill="#000000" text-anchor="start" style="white-space: pre;" direction="ltr" dominant-baseline="text-before-edge"></text><text x="0" y="46" font-family="Helvetica, Segoe UI Emoji" font-size="20px" fill="#000000" text-anchor="start" style="white-space: pre;" direction="ltr" dominant-baseline="text-before-edge">/gpt_mock - generate similar prompts from a user provided one</text></g><g transform="translate(84.48585672054287 527.9950076654643) rotate(0 21.11328125 11.5)"><text x="0" y="0" font-family="Helvetica, Segoe UI Emoji" font-size="20px" fill="#000000" text-anchor="start" style="white-space: pre;" direction="ltr" dominant-baseline="text-before-edge">User</text></g><g stroke-linecap="round"><g transform="translate(81.69863607203479 518.3420816554856) rotate(0 25.819645202628635 -21.795699329337083)" fill-rule="evenodd"><path d="M13.47 -38.64 C13.47 -38.64, 13.47 -38.64, 13.47 -38.64 M13.47 -38.64 C13.47 -38.64, 13.47 -38.64, 13.47 -38.64 M7.04 -19.05 C12.34 -25.15, 17.65 -31.25, 26.72 -41.69 M7.04 -19.05 C13.99 -27.05, 20.94 -35.04, 26.72 -41.69 M0.61 0.53 C13.45 -14.23, 26.29 -29, 35.39 -39.47 M0.61 0.53 C12.35 -12.96, 24.08 -26.46, 35.39 -39.47 M11.24 0.5 C21.17 -10.91, 31.09 -22.33, 40.77 -33.46 M11.24 0.5 C21.43 -11.22, 31.62 -22.94, 40.77 -33.46 M21.87 0.47 C27.16 -5.61, 32.44 -11.69, 46.81 -28.21 M21.87 0.47 C28.23 -6.84, 34.58 -14.15, 46.81 -28.21 M29.22 4.2 C34.7 -2.09, 40.17 -8.39, 50.87 -20.7 M29.22 4.2 C34.56 -1.93, 39.89 -8.06, 50.87 -20.7 M41.82 1.91 C45.07 -1.83, 48.31 -5.56, 54.94 -13.19 M41.82 1.91 C46.85 -3.87, 51.87 -9.65, 54.94 -13.19 M0 0 C0 0, 0 0, 0 0 M0 0 C0 0, 0 0, 0 0 M12.04 -0.13 C9.65 -2.21, 7.26 -4.29, 1.47 -9.32 M12.04 -0.13 C9.44 -2.39, 6.84 -4.66, 1.47 -9.32 M24.84 0.39 C17.84 -5.7, 10.83 -11.78, 2.95 -18.64 M24.84 0.39 C17.28 -6.18, 9.71 -12.76, 2.95 -18.64 M30.08 -5.65 C24.88 -10.17, 19.68 -14.69, 6.69 -25.99 M30.08 -5.65 C23.13 -11.69, 16.17 -17.74, 6.69 -25.99 M45.9 -2.5 C32.62 -14.05, 19.34 -25.59, 9.67 -33.99 M45.9 -2.5 C35.08 -11.91, 24.26 -21.31, 9.67 -33.99 M52.66 -7.23 C43.95 -14.79, 35.25 -22.36, 14.92 -40.03 M52.66 -7.23 C40.7 -17.62, 28.73 -28.02, 14.92 -40.03 M51.11 -19.17 C43.38 -25.89, 35.64 -32.62, 20.92 -45.41 M51.11 -19.17 C42.92 -26.29, 34.73 -33.41, 20.92 -45.41" stroke="#ced4da" stroke-width="1" fill="none"></path><path d="M0 0 C0.92 -4.85, 1.58 -21.76, 5.52 -29.07 C9.46 -36.38, 17.61 -43.34, 23.65 -43.87 C29.69 -44.4, 37.51 -39.05, 41.78 -32.24 C46.05 -25.43, 56.23 -8.39, 49.27 -3.02 C42.31 2.36, 8.21 -0.5, 0 0 M0 0 C0.92 -4.85, 1.58 -21.76, 5.52 -29.07 C9.46 -36.38, 17.61 -43.34, 23.65 -43.87 C29.69 -44.4, 37.51 -39.05, 41.78 -32.24 C46.05 -25.43, 56.23 -8.39, 49.27 -3.02 C42.31 2.36, 8.21 -0.5, 0 0" stroke="#000000" stroke-width="2" fill="none"></path></g></g><mask></mask><g stroke-linecap="round" transform="translate(94.15250690835092 451.6510338696289) rotate(0 12.612971703842959 11.036350240862816)"><path d="M2.98 3.91 C2.98 3.91, 2.98 3.91, 2.98 3.91 M2.98 3.91 C2.98 3.91, 2.98 3.91, 2.98 3.91 M2.45 16.71 C5.62 13.07, 8.78 9.43, 16.23 0.86 M2.45 16.71 C7.92 10.42, 13.38 4.14, 16.23 0.86 M8.49 21.96 C11.82 18.13, 15.14 14.31, 23.58 4.6 M8.49 21.96 C12.59 17.24, 16.69 12.53, 23.58 4.6 M4.36 19.37 C4.36 19.37, 4.36 19.37, 4.36 19.37 M4.36 19.37 C4.36 19.37, 4.36 19.37, 4.36 19.37 M17.91 20.55 C12.13 15.51, 6.34 10.48, 1.31 6.11 M17.91 20.55 C11.62 15.07, 5.32 9.6, 1.31 6.11 M24.67 15.82 C17.74 9.79, 10.81 3.77, 7.31 0.73 M24.67 15.82 C19.7 11.5, 14.73 7.18, 7.31 0.73" stroke="#ced4da" stroke-width="1" fill="none"></path><path d="M25.23 11.04 C25.23 11.68, 25.16 12.32, 25.03 12.95 C24.91 13.58, 24.71 14.21, 24.47 14.81 C24.22 15.41, 23.9 16, 23.54 16.55 C23.17 17.11, 22.74 17.64, 22.28 18.13 C21.81 18.62, 21.28 19.08, 20.72 19.49 C20.16 19.9, 19.55 20.27, 18.92 20.59 C18.29 20.91, 17.61 21.19, 16.93 21.41 C16.24 21.63, 15.52 21.79, 14.8 21.91 C14.08 22.02, 13.34 22.07, 12.61 22.07 C11.88 22.07, 11.14 22.02, 10.42 21.91 C9.7 21.79, 8.99 21.63, 8.3 21.41 C7.61 21.19, 6.94 20.91, 6.31 20.59 C5.67 20.27, 5.06 19.9, 4.51 19.49 C3.95 19.08, 3.42 18.62, 2.95 18.13 C2.48 17.64, 2.05 17.11, 1.69 16.55 C1.32 16, 1.01 15.41, 0.76 14.81 C0.51 14.21, 0.32 13.58, 0.19 12.95 C0.06 12.32, 0 11.68, 0 11.04 C0 10.4, 0.06 9.75, 0.19 9.12 C0.32 8.49, 0.51 7.86, 0.76 7.26 C1.01 6.66, 1.32 6.07, 1.69 5.52 C2.05 4.96, 2.48 4.43, 2.95 3.94 C3.42 3.45, 3.95 2.99, 4.51 2.58 C5.06 2.17, 5.67 1.8, 6.31 1.48 C6.94 1.16, 7.61 0.88, 8.3 0.67 C8.99 0.45, 9.7 0.28, 10.42 0.17 C11.14 0.06, 11.88 0, 12.61 0 C13.34 0, 14.08 0.06, 14.8 0.17 C15.52 0.28, 16.24 0.45, 16.93 0.67 C17.61 0.88, 18.29 1.16, 18.92 1.48 C19.55 1.8, 20.16 2.17, 20.72 2.58 C21.28 2.99, 21.81 3.45, 22.28 3.94 C22.74 4.43, 23.17 4.96, 23.54 5.52 C23.9 6.07, 24.22 6.66, 24.47 7.26 C24.71 7.86, 24.91 8.49, 25.03 9.12 C25.16 9.75, 25.19 10.72, 25.23 11.04 C25.26 11.36, 25.26 10.72, 25.23 11.04" stroke="#000000" stroke-width="2" fill="none"></path></g><g transform="translate(243.94345638758386 501.3188340512381) rotate(0 102.2607421875 11.5)"><text x="0" y="0" font-family="Helvetica, Segoe UI Emoji" font-size="20px" fill="#000000" text-anchor="start" style="white-space: pre;" direction="ltr" dominant-baseline="text-before-edge">prompts for Midjourney</text></g><g stroke-linecap="round"><g transform="translate(139.67896329004907 541.8762262689434) rotate(0 49.59778431273389 48.60057532200142)"><path d="M-0.61 0.66 C15.96 16.7, 82.92 81.3, 99.8 97.24 M1.27 -0.03 C17.63 15.59, 82.22 79.28, 98.73 95.54" stroke="#000000" stroke-width="1" fill="none"></path></g><g transform="translate(139.67896329004907 541.8762262689434) rotate(0 49.59778431273389 48.60057532200142)"><path d="M72.55 82.65 C81.92 88.45, 89.31 92.43, 100.5 95.94 M71.89 82.82 C78.15 85.02, 83.04 88.18, 99.31 95.57" stroke="#000000" stroke-width="1" fill="none"></path></g><g transform="translate(139.67896329004907 541.8762262689434) rotate(0 49.59778431273389 48.60057532200142)"><path d="M86.95 68.03 C91.67 78.59, 94.3 87.41, 100.5 95.94 M86.29 68.2 C89.65 73.58, 91.51 79.81, 99.31 95.57" stroke="#000000" stroke-width="1" fill="none"></path></g></g><mask></mask><g stroke-linecap="round" transform="translate(240.73860516532477 646.0766223420346) rotate(0 141.90279999363338 65.84900978004305)"><path d="M32 0 M32 0 C101.72 -0.37, 172.13 -1.15, 251.81 0 M32 0 C110.95 -0.04, 190.08 -0.38, 251.81 0 M251.81 0 C271.66 0.57, 282.4 12.04, 283.81 32 M251.81 0 C274.87 0.5, 282.44 10.91, 283.81 32 M283.81 32 C285.38 55.24, 284.72 79.96, 283.81 99.7 M283.81 32 C283.68 44.94, 283.51 60.07, 283.81 99.7 M283.81 99.7 C282.65 119.34, 274.42 132.86, 251.81 131.7 M283.81 99.7 C284.61 118.79, 273.59 129.42, 251.81 131.7 M251.81 131.7 C200.9 129.49, 147.26 129.91, 32 131.7 M251.81 131.7 C179.66 130.62, 107.11 130.7, 32 131.7 M32 131.7 C10.14 131.49, -0.69 121.07, 0 99.7 M32 131.7 C10.67 131.48, 0.84 121.7, 0 99.7 M0 99.7 C1.59 80.45, 1.44 58.43, 0 32 M0 99.7 C0.24 81.91, -0.6 63.04, 0 32 M0 32 C-1.58 11.04, 11.43 -0.88, 32 0 M0 32 C-1.18 12.02, 10.91 -1.89, 32 0" stroke="#000000" stroke-width="1" fill="none"></path></g><g transform="translate(279.26249890895815 688.9256321220776) rotate(0 103.37890625 23)"><text x="103.37890625" y="0" font-family="Helvetica, Segoe UI Emoji" font-size="20px" fill="#000000" text-anchor="middle" style="white-space: pre;" direction="ltr" dominant-baseline="text-before-edge">    Midjourney /imagine </text><text x="103.37890625" y="23" font-family="Helvetica, Segoe UI Emoji" font-size="20px" fill="#000000" text-anchor="middle" style="white-space: pre;" direction="ltr" dominant-baseline="text-before-edge">       </text></g><g stroke-linecap="round" transform="translate(10 208.23518977552703) rotate(0 296.9561728359413 308.894243638862)"><path d="M32 0 M32 0 C240.04 -1.84, 449.52 -1.15, 561.91 0 M32 0 C236.36 0.81, 440.64 0.57, 561.91 0 M561.91 0 C584.72 0.26, 595.8 11.09, 593.91 32 M561.91 0 C581.89 0.67, 592.59 8.87, 593.91 32 M593.91 32 C593.77 163.85, 594.08 295.74, 593.91 585.79 M593.91 32 C596.19 213.2, 595.73 393.3, 593.91 585.79 M593.91 585.79 C592.74 608.57, 582.76 617, 561.91 617.79 M593.91 585.79 C594.53 606.94, 581.77 619.05, 561.91 617.79 M561.91 617.79 C365.15 618.4, 166.97 618.25, 32 617.79 M561.91 617.79 C388.22 618.19, 213.46 617.98, 32 617.79 M32 617.79 C8.69 616.11, 1.91 608.54, 0 585.79 M32 617.79 C9.74 618.27, 1.21 606.04, 0 585.79 M0 585.79 C-1.59 375.07, -1.58 163.97, 0 32 M0 585.79 C-0.54 364.52, -1 143.56, 0 32 M0 32 C0.36 12.38, 9.63 1.08, 32 0 M0 32 C-1.58 10.93, 11.86 -1.48, 32 0" stroke="#000000" stroke-width="1" fill="none"></path></g><g transform="translate(51.71648007642216 233.4840759882352) rotate(0 140.05859375 11.5)"><text x="0" y="0" font-family="Helvetica, Segoe UI Emoji" font-size="20px" fill="#000000" text-anchor="start" style="white-space: pre;" direction="ltr" dominant-baseline="text-before-edge">Private Discord Server/Channel</text></g><g stroke-linecap="round"><g transform="translate(135.8865560103386 460.32774498323136) rotate(0 85.32004567142849 -7.288269630616526)"><path d="M-1.09 0.16 C27.67 -9.91, 169.12 -67.75, 171.69 -59.94 C174.26 -52.14, 40.39 29.13, 14.32 47 M0.54 -0.8 C29.2 -11.28, 168.47 -69.94, 170.62 -61.81 C172.78 -53.67, 39.26 29.66, 13.49 48" stroke="#000000" stroke-width="1" fill="none"></path></g><g transform="translate(135.8865560103386 460.32774498323136) rotate(0 85.32004567142849 -7.288269630616526)"><path d="M31.59 23.51 C28.2 28.96, 22.31 36.06, 12.97 49.97 M31.75 24.44 C25.26 32.39, 19.77 38.78, 12.62 47.49" stroke="#000000" stroke-width="1" fill="none"></path></g><g transform="translate(135.8865560103386 460.32774498323136) rotate(0 85.32004567142849 -7.288269630616526)"><path d="M42.92 40.62 C36.89 42.09, 28.43 45.3, 12.97 49.97 M43.08 41.56 C33.1 43.94, 23.99 44.88, 12.62 47.49" stroke="#000000" stroke-width="1" fill="none"></path></g></g><mask></mask><g stroke-linecap="round" transform="translate(828.4393597117214 338.65440246362186) rotate(0 129.71053297525668 102.26901030411614)"><path d="M32 0 M32 0 C83.58 1.14, 133.99 -0.73, 227.42 0 M32 0 C75.84 1.74, 118.8 1.95, 227.42 0 M227.42 0 C249.24 -0.33, 257.83 11.23, 259.42 32 M227.42 0 C246.72 1.74, 257.18 8.82, 259.42 32 M259.42 32 C258.01 87.49, 257.33 140.63, 259.42 172.54 M259.42 32 C257.78 86.02, 257.08 139.71, 259.42 172.54 M259.42 172.54 C257.6 193.06, 247.61 206.48, 227.42 204.54 M259.42 172.54 C258.57 191.77, 248.27 206.79, 227.42 204.54 M227.42 204.54 C186.98 203.62, 144.06 206.85, 32 204.54 M227.42 204.54 C149.92 203.76, 72.98 202.69, 32 204.54 M32 204.54 C9.22 205.09, 0.08 195.78, 0 172.54 M32 204.54 C9.53 204.22, 2.06 194.06, 0 172.54 M0 172.54 C-1.67 119.42, -0.59 66.33, 0 32 M0 172.54 C0.64 132.34, 1.34 91.16, 0 32 M0 32 C-1.87 10.11, 10.71 0.49, 32 0 M0 32 C-1.96 9.72, 12.63 -0.43, 32 0" stroke="#000000" stroke-width="1" fill="none"></path></g><g stroke-linecap="round" transform="translate(840.66052570594 361.7400141013044) rotate(0 129.71053297525668 102.2690103041162)"><path d="M32 0 M32 0 C90.01 -0.38, 150.43 -0.24, 227.42 0 M32 0 C95.44 1.13, 157.54 0.09, 227.42 0 M227.42 0 C249.32 -1.77, 260.93 8.72, 259.42 32 M227.42 0 C246.91 2.06, 257.34 11.08, 259.42 32 M259.42 32 C259.03 74.82, 257.95 113.75, 259.42 172.54 M259.42 32 C259.38 69.68, 259.13 108.62, 259.42 172.54 M259.42 172.54 C261.36 193.13, 246.92 204.12, 227.42 204.54 M259.42 172.54 C261.67 191.85, 248.88 205.7, 227.42 204.54 M227.42 204.54 C160.21 206.04, 91.57 202.72, 32 204.54 M227.42 204.54 C166.73 205.24, 107.33 206.01, 32 204.54 M32 204.54 C12.57 203.55, -0.28 195.66, 0 172.54 M32 204.54 C10.86 206.21, -0.31 192.43, 0 172.54 M0 172.54 C-0.95 143.2, -0.26 112.75, 0 32 M0 172.54 C-0.83 128.24, -0.63 85.85, 0 32 M0 32 C0.49 8.97, 9.85 1.7, 32 0 M0 32 C-0.43 8.4, 12.85 -1, 32 0" stroke="#000000" stroke-width="1" fill="none"></path></g><g stroke-linecap="round" transform="translate(787.4167852397622 262.3170541511678) rotate(0 185.87870018175 192.43262093127186)"><path d="M32 0 M32 0 C119.04 1.46, 204.9 0.17, 339.76 0 M32 0 C132.95 -0.77, 233.61 -1.59, 339.76 0 M339.76 0 C361.51 1.45, 370.53 8.95, 371.76 32 M339.76 0 C360.11 -1.78, 369.6 10.14, 371.76 32 M371.76 32 C373.15 138.08, 373.3 244.37, 371.76 352.87 M371.76 32 C370.35 140.2, 369.38 247.48, 371.76 352.87 M371.76 352.87 C373.47 372.89, 361.95 382.96, 339.76 384.87 M371.76 352.87 C371.77 372.27, 360.77 386.81, 339.76 384.87 M339.76 384.87 C269.69 385.59, 201.46 385.51, 32 384.87 M339.76 384.87 C276.02 385.62, 213.74 385.64, 32 384.87 M32 384.87 C11.92 384.3, 0.46 374.42, 0 352.87 M32 384.87 C8.92 384.94, 1.95 372.06, 0 352.87 M0 352.87 C-0.65 256.7, 0.93 160.1, 0 32 M0 352.87 C1.63 277.46, 0.98 201.71, 0 32 M0 32 C1.23 10.95, 10.53 0.35, 32 0 M0 32 C1.8 10.46, 11.13 -1.3, 32 0" stroke="#000000" stroke-width="1" fill="none"></path></g><g transform="translate(796.7909750648723 276.247474130593) rotate(0 126.7333984375 23)"><text x="0" y="0" font-family="Helvetica, Segoe UI Emoji" font-size="20px" fill="#000000" text-anchor="start" style="white-space: pre;" direction="ltr" dominant-baseline="text-before-edge">  Azure Container App/ AKS </text><text x="0" y="23" font-family="Helvetica, Segoe UI Emoji" font-size="20px" fill="#000000" text-anchor="start" style="white-space: pre;" direction="ltr" dominant-baseline="text-before-edge">    Stateless Deployment</text></g><g transform="translate(263.4182689814843 584.078775447405) rotate(0 62.236328125 11.5)"><text x="0" y="0" font-family="Helvetica, Segoe UI Emoji" font-size="20px" fill="#000000" text-anchor="start" style="white-space: pre;" direction="ltr" dominant-baseline="text-before-edge">MD command</text></g><g stroke-linecap="round" transform="translate(187.98675404689857 370.6784153944943) rotate(0 23.432803853426776 23.5)"><path d="M20.43 -0.45 C24.85 -1.51, 30.77 1.09, 34.95 3.88 C39.13 6.68, 43.68 11.5, 45.51 16.3 C47.34 21.09, 47.63 28.16, 45.93 32.65 C44.23 37.13, 39.88 40.88, 35.3 43.2 C30.73 45.52, 23.65 47.3, 18.5 46.58 C13.34 45.86, 7.31 42.87, 4.37 38.86 C1.44 34.85, 0.51 27.82, 0.88 22.52 C1.26 17.22, 2.46 10.82, 6.65 7.04 C10.83 3.26, 22.11 0.59, 26 -0.15 C29.89 -0.89, 30.05 2.03, 30.01 2.6 M33.44 0.19 C37.93 1.51, 40.87 7.11, 42.99 11.76 C45.11 16.41, 47.24 23.21, 46.19 28.09 C45.14 32.98, 40.76 37.92, 36.7 41.09 C32.63 44.27, 26.38 47, 21.8 47.14 C17.22 47.29, 12.61 45.56, 9.22 41.96 C5.83 38.35, 2.64 30.74, 1.47 25.51 C0.29 20.29, -0.1 14.43, 2.19 10.61 C4.48 6.79, 10.44 3.91, 15.21 2.61 C19.99 1.32, 28.03 2.78, 30.87 2.84 C33.71 2.91, 32.4 2.82, 32.26 3.01" stroke="#000000" stroke-width="1" fill="none"></path></g><g transform="translate(205.78853995585268 382.5614060366104) rotate(0 5.5615234375 11.5)"><text x="5.5615234375" y="0" font-family="Helvetica, Segoe UI Emoji" font-size="20px" fill="#000000" text-anchor="middle" style="white-space: pre;" direction="ltr" dominant-baseline="text-before-edge">1</text></g><g stroke-linecap="round" transform="translate(166.39139822755897 634.6589114499541) rotate(0 23.432803853426776 23.5)"><path d="M20.85 0.03 C25.33 -0.8, 31.38 1.2, 35.56 4.05 C39.73 6.9, 44.41 12.2, 45.9 17.12 C47.39 22.05, 46.44 29.13, 44.5 33.59 C42.56 38.06, 38.56 41.72, 34.26 43.9 C29.97 46.07, 23.76 47.66, 18.73 46.63 C13.69 45.6, 7.17 41.92, 4.04 37.7 C0.91 33.49, -0.26 26.5, -0.05 21.34 C0.16 16.18, 0.65 10.4, 5.3 6.73 C9.95 3.06, 23.29 0.02, 27.86 -0.7 C32.43 -1.42, 32.85 1.76, 32.7 2.42 M27.9 -0.47 C32.3 0.58, 38.36 4.99, 41.52 9.41 C44.69 13.83, 47.04 20.86, 46.9 26.05 C46.76 31.24, 44.17 37.1, 40.69 40.53 C37.21 43.96, 31.31 46.43, 26.02 46.64 C20.73 46.84, 12.93 44.69, 8.93 41.75 C4.93 38.81, 3.36 33.61, 2.02 28.99 C0.68 24.37, -0.93 18.39, 0.9 14.03 C2.72 9.68, 8.35 4.88, 12.97 2.87 C17.59 0.86, 25.92 2.15, 28.59 1.96 C31.26 1.78, 29.23 1.45, 29 1.77" stroke="#000000" stroke-width="1" fill="none"></path></g><g transform="translate(184.19318413651308 646.5419020920701) rotate(0 5.5615234375 11.5)"><text x="5.5615234375" y="0" font-family="Helvetica, Segoe UI Emoji" font-size="20px" fill="#000000" text-anchor="middle" style="white-space: pre;" direction="ltr" dominant-baseline="text-before-edge">3</text></g><g stroke-linecap="round" transform="translate(320.2242568960555 307.355896661334) rotate(0 94.43094126390133 61.853628589625146)"><path d="M30.93 0 M30.93 0 C71.63 -1.43, 111.84 -1.85, 157.94 0 M30.93 0 C81.08 1.66, 129.27 0.7, 157.94 0 M157.94 0 C179.53 -0.4, 188.79 11.4, 188.86 30.93 M157.94 0 C176.56 0.02, 187.64 9.98, 188.86 30.93 M188.86 30.93 C188.16 47.28, 189.73 63.87, 188.86 92.78 M188.86 30.93 C187.67 51.72, 189.45 70.25, 188.86 92.78 M188.86 92.78 C190.52 112.56, 179.56 123.28, 157.94 123.71 M188.86 92.78 C188.5 111.28, 177.26 121.78, 157.94 123.71 M157.94 123.71 C131.87 125.8, 101.35 123.64, 30.93 123.71 M157.94 123.71 C123.22 123.91, 88.42 122.91, 30.93 123.71 M30.93 123.71 C10.7 123.73, 0.44 113.09, 0 92.78 M30.93 123.71 C11.46 124.25, 1.86 113.07, 0 92.78 M0 92.78 C0.13 70.32, -1.02 49.82, 0 30.93 M0 92.78 C0.34 69.4, 0.04 44.44, 0 30.93 M0 30.93 C1.6 10.18, 9.54 -1.62, 30.93 0 M0 30.93 C1.34 10.02, 11.99 1.33, 30.93 0" stroke="#000000" stroke-width="1" fill="none"></path></g><g transform="translate(345.92182227987905 353.5164370992909) rotate(0 73.9111328125 11.5)"><text x="0" y="0" font-family="Helvetica, Segoe UI Emoji" font-size="20px" fill="#000000" text-anchor="start" style="white-space: pre;" direction="ltr" dominant-baseline="text-before-edge">Discord GPT bot</text></g><g stroke-linecap="round"><g transform="translate(525.9276325968367 323.68461363875053) rotate(0 137.21625505094107 52.80258921371768)"><path d="M-0.88 -1.04 C44.6 16.39, 272.57 93.44, 272.92 104.75 C273.27 116.07, 46.48 73.17, 1.23 66.84 M0.86 1.03 C46.74 18.14, 275.33 92.6, 275.31 103.22 C275.3 113.84, 46.33 70.61, 0.79 64.77" stroke="#000000" stroke-width="1" fill="none"></path></g><g transform="translate(525.9276325968367 323.68461363875053) rotate(0 137.21625505094107 52.80258921371768)"><path d="M28.53 58.15 C23.26 61.67, 13.34 63.69, 1.55 63.66 M29.79 58.2 C21.89 61.14, 12.76 62.93, 0.55 65.72" stroke="#000000" stroke-width="1" fill="none"></path></g><g transform="translate(525.9276325968367 323.68461363875053) rotate(0 137.21625505094107 52.80258921371768)"><path d="M25.24 78.41 C20.93 75.84, 12 71.75, 1.55 63.66 M26.5 78.45 C19.59 75.42, 11.43 71.22, 0.55 65.72" stroke="#000000" stroke-width="1" fill="none"></path></g></g><mask></mask><g stroke-linecap="round" transform="translate(670.6693966315252 322.4529882147565) rotate(0 23.432803853426776 23.5)"><path d="M34.39 1.89 C39.02 3.77, 43.78 9.18, 45.78 13.92 C47.77 18.65, 47.99 25.46, 46.38 30.28 C44.76 35.1, 40.36 39.98, 36.08 42.83 C31.8 45.67, 25.63 48.01, 20.68 47.34 C15.72 46.67, 9.66 42.58, 6.34 38.8 C3.03 35.03, 1.06 29.52, 0.78 24.68 C0.5 19.85, 1.66 13.66, 4.66 9.8 C7.65 5.93, 13.46 2.39, 18.75 1.51 C24.03 0.63, 33.05 3.54, 36.36 4.5 C39.66 5.46, 38.64 7.12, 38.57 7.28 M25.41 -0.74 C30.4 -0.45, 37.44 3.92, 40.98 7.6 C44.52 11.29, 46.5 16.69, 46.65 21.39 C46.8 26.08, 44.91 31.55, 41.89 35.76 C38.87 39.98, 33.25 44.96, 28.52 46.69 C23.8 48.42, 18.15 48.25, 13.54 46.16 C8.93 44.06, 3.03 38.63, 0.85 34.1 C-1.32 29.56, -0.82 23.96, 0.49 18.94 C1.8 13.92, 4.4 7.18, 8.72 3.99 C13.04 0.79, 23.52 0.3, 26.39 -0.25 C29.27 -0.8, 26.2 0.1, 25.96 0.7" stroke="#000000" stroke-width="1" fill="none"></path></g><g transform="translate(688.4711825404793 334.33597885687266) rotate(0 5.5615234375 11.5)"><text x="5.5615234375" y="0" font-family="Helvetica, Segoe UI Emoji" font-size="20px" fill="#000000" text-anchor="middle" style="white-space: pre;" direction="ltr" dominant-baseline="text-before-edge">2</text></g><g stroke-linecap="round"><g transform="translate(391.446733892104 27.33548305052898) rotate(0 -33.00902808727096 137.6666358820325)"><path d="M0.82 0.68 C-11.61 26.22, -76.09 108.12, -74.7 153.9 C-73.32 199.67, -4.74 255.21, 9.11 275.34 M-0.21 -0.01 C-12.69 25.1, -76.53 106.44, -75.1 152.02 C-73.67 197.6, -5.55 252.84, 8.35 273.49" stroke="#000000" stroke-width="1" fill="none"></path></g><g transform="translate(391.446733892104 27.33548305052898) rotate(0 -33.00902808727096 137.6666358820325)"><path d="M-16.95 261.05 C-9.68 263.21, -1.37 266.08, 8.76 274.91 M-17.88 260.16 C-11.69 262.11, -5.02 266.75, 7.5 274.37" stroke="#000000" stroke-width="1" fill="none"></path></g><g transform="translate(391.446733892104 27.33548305052898) rotate(0 -33.00902808727096 137.6666358820325)"><path d="M-1.65 247.38 C1.33 253.54, 5.27 260.31, 8.76 274.91 M-2.58 246.48 C0.08 251.56, 3.16 259.39, 7.5 274.37" stroke="#000000" stroke-width="1" fill="none"></path></g></g><mask></mask><g stroke-linecap="round" transform="translate(862.540055142732 792.0909860645163) rotate(0 29.488415410328344 32.271282083229266)"><path d="M33.86 0.94 C39.89 1.81, 48.07 7.27, 52.39 12.36 C56.71 17.46, 59.75 24.89, 59.77 31.51 C59.78 38.12, 56.75 46.73, 52.47 52.05 C48.2 57.37, 40.44 62.13, 34.11 63.44 C27.77 64.74, 19.77 63.25, 14.46 59.88 C9.16 56.5, 4.45 49.77, 2.29 43.2 C0.12 36.63, -0.61 26.88, 1.47 20.47 C3.55 14.07, 8.03 7.63, 14.76 4.77 C21.49 1.92, 36.41 2.77, 41.84 3.34 C47.28 3.91, 47.41 7.85, 47.36 8.21 M44.26 3.31 C49.5 6.01, 52.86 12.47, 55.19 19.06 C57.51 25.65, 59.87 36.23, 58.2 42.86 C56.53 49.49, 50.65 55.49, 45.16 58.87 C39.68 62.24, 31.46 64.05, 25.32 63.12 C19.18 62.19, 12.45 58.21, 8.31 53.27 C4.17 48.33, 1.1 40.18, 0.5 33.48 C-0.09 26.78, 1.11 18.66, 4.74 13.06 C8.36 7.46, 15.94 1.62, 22.26 -0.14 C28.58 -1.9, 39.16 1.82, 42.67 2.51 C46.18 3.2, 43.4 3.44, 43.33 4" stroke="#364fc7" stroke-width="4" fill="none"></path></g><g stroke-linecap="round"><g transform="translate(890.9738984331179 800.533978008538) rotate(0 2.3314219633648463 26.19750173046191)" fill-rule="evenodd"><path d="M1.74 -0.33 L-12.61 9.98 L-11.64 16.25 L-11.39 17.43 L-1.85 26.37 L-0.1 44.16 L3.66 51.7 L6.63 47.36 L5.19 41.99 L8.04 38.25 L5.56 35.49 L8.9 31.18 L3.6 28.67 L4.06 26.9 L16.35 21.33 L18.3 17.37 L12.99 7.69 L4.43 1.74 L2.91 -0.06 L0.03 -0.97" stroke="none" stroke-width="0" fill="#fab005" fill-rule="evenodd"></path><path d="M0.41 0.12 C-1.85 2.37, -12.22 9.37, -12.4 14.08 C-12.57 18.79, -2.77 23.01, -0.64 28.39 C1.5 33.77, -0.05 42.33, 0.43 46.36 C0.92 50.39, 1.14 52.61, 2.28 52.59 C3.42 52.57, 6.75 47.86, 7.26 46.23 C7.78 44.59, 5.28 43.79, 5.39 42.79 C5.5 41.78, 8.09 41.45, 7.93 40.21 C7.76 38.98, 4.57 36.7, 4.42 35.35 C4.26 33.99, 6.96 33.45, 6.98 32.08 C6.99 30.72, 2.65 29.81, 4.49 27.13 C6.33 24.45, 18 20.34, 18.03 16.01 C18.06 11.67, 7.78 3.59, 4.68 1.11 C1.57 -1.36, 0.15 1.47, -0.61 1.14 M-0.84 -0.86 C-3.36 1.47, -13.32 10.7, -13.36 15.22 C-13.41 19.75, -2.93 21.45, -1.1 26.29 C0.73 31.14, -3.25 39.82, -2.39 44.3 C-1.53 48.78, 2.32 52.49, 4.07 53.18 C5.83 53.87, 7.87 49.84, 8.13 48.45 C8.4 47.07, 5.91 46.24, 5.66 44.86 C5.42 43.48, 6.55 41.4, 6.64 40.17 C6.74 38.93, 6.16 38.87, 6.25 37.46 C6.34 36.05, 7.38 33.28, 7.18 31.71 C6.98 30.13, 3.45 30.18, 5.05 28.01 C6.66 25.84, 16.82 23.22, 16.8 18.69 C16.77 14.15, 7.97 3.66, 4.9 0.8 C1.83 -2.05, -0.9 1.38, -1.63 1.54" stroke="#000000" stroke-width="1" fill="none"></path></g></g><mask></mask><g stroke-linecap="round" transform="translate(890.3132255211713 804.7643934748778) rotate(0 2.636189224590453 3.1638136482971504)"><path d="M4.05 -0.54 C4.56 -0.73, 4.98 -0.13, 5.08 0.42 C5.17 0.97, 4.8 2.02, 4.64 2.77 C4.49 3.52, 4.37 4.39, 4.16 4.94 C3.95 5.49, 3.94 6.08, 3.4 6.07 C2.86 6.07, 1.44 5.18, 0.91 4.91 C0.38 4.64, 0.37 4.89, 0.23 4.44 C0.09 3.98, 0 2.87, 0.06 2.19 C0.11 1.5, -0.12 0.74, 0.58 0.32 C1.28 -0.1, 3.59 -0.37, 4.25 -0.36 C4.92 -0.35, 4.82 0.11, 4.55 0.39 M2.96 1.07 C3.69 1.01, 3.56 0.04, 3.85 0.06 C4.14 0.08, 4.43 0.6, 4.7 1.19 C4.97 1.78, 5.55 2.83, 5.47 3.58 C5.39 4.32, 5 5.17, 4.21 5.65 C3.41 6.14, 1.43 6.78, 0.69 6.5 C-0.05 6.23, -0.05 4.8, -0.21 4.02 C-0.37 3.24, -0.55 2.36, -0.27 1.82 C0 1.28, 0.87 1.18, 1.43 0.78 C1.99 0.38, 2.95 -0.42, 3.07 -0.56 C3.19 -0.71, 2.25 -0.19, 2.15 -0.1" stroke="#000000" stroke-width="1" fill="none"></path></g><g stroke-linecap="round"><g transform="translate(886.4825856082425 816.6853701870716) rotate(0 7.1703971858605655 -0.05300771952886407)"><path d="M0.57 0.47 C3.06 0.72, 12.85 0.8, 14.93 0.75 M-0.59 -0.33 C1.85 -0.34, 11.89 -0.6, 14.57 -0.87" stroke="#000000" stroke-width="1" fill="none"></path></g></g><mask></mask><g stroke-linecap="round"><g transform="translate(886.6323456683567 820.5341773580951) rotate(0 7.809876629919927 -0.39463574614217123)"><path d="M1.13 0.95 C3.21 0.9, 11.11 0.5, 13.05 0.18 M0.26 0.4 C2.67 -0.06, 12.89 -1.67, 15.36 -1.74" stroke="#000000" stroke-width="1" fill="none"></path></g></g><mask></mask><g stroke-linecap="round"><g transform="translate(892.1066198810367 830.9160164782736) rotate(0 0.04163893346412806 8.052233591464073)"><path d="M-0.76 0.38 C-1.12 2.79, -1.04 12.87, -1.04 15.42 M1.05 -0.46 C0.95 2, 1 13.69, 1.13 16.57" stroke="#000000" stroke-width="1" fill="none"></path></g></g><mask></mask><g transform="translate(844.5284705530594 856.7920877029812) rotate(0 47.5 12.5)"><text x="0" y="0" font-family="Virgil, Segoe UI Emoji" font-size="20px" fill="#000000" text-anchor="start" style="white-space: pre;" direction="ltr" dominant-baseline="text-before-edge">Key Vault</text></g><g transform="translate(959.4959302003463 801.8377331625904) rotate(0 77.8173828125 23)"><text x="0" y="0" font-family="Helvetica, Segoe UI Emoji" font-size="20px" fill="#000000" text-anchor="start" style="white-space: pre;" direction="ltr" dominant-baseline="text-before-edge">API Keys</text><text x="0" y="23" font-family="Helvetica, Segoe UI Emoji" font-size="20px" fill="#000000" text-anchor="start" style="white-space: pre;" direction="ltr" dominant-baseline="text-before-edge">Discord bot token</text></g><g stroke-linecap="round"><g transform="translate(931.3359707940581 614.0868657251704) rotate(0 40.43354913045732 83.94416860106674)"><path d="M-0.64 -1.12 C5.14 28.39, 21.36 179.43, 34.67 177.94 C47.98 176.45, 71.49 21.09, 79.23 -10.06 M1.22 0.91 C6.81 30, 20.11 177.92, 33.49 176.22 C46.87 174.53, 73.48 21.42, 81.51 -9.26" stroke="#000000" stroke-width="1" fill="none"></path></g><g transform="translate(931.3359707940581 614.0868657251704) rotate(0 40.43354913045732 83.94416860106674)"><path d="M83.79 19.71 C85.47 9.58, 81.31 3.74, 81.65 -9.43 M85.2 19.94 C83.17 9.45, 82.52 -3.07, 82.25 -9.14" stroke="#000000" stroke-width="1" fill="none"></path></g><g transform="translate(931.3359707940581 614.0868657251704) rotate(0 40.43354913045732 83.94416860106674)"><path d="M63.72 15.43 C71.45 6.69, 73.3 2.13, 81.65 -9.43 M65.14 15.65 C70.98 6.81, 78.2 -4.02, 82.25 -9.14" stroke="#000000" stroke-width="1" fill="none"></path></g></g><mask></mask><g transform="translate(1006.7140715416208 655.8140286390005) rotate(0 191.7626953125 23)"><text x="0" y="0" font-family="Helvetica, Segoe UI Emoji" font-size="20px" fill="#000000" text-anchor="start" style="white-space: pre;" direction="ltr" dominant-baseline="text-before-edge">On startup</text><text x="0" y="23" font-family="Helvetica, Segoe UI Emoji" font-size="20px" fill="#000000" text-anchor="start" style="white-space: pre;" direction="ltr" dominant-baseline="text-before-edge">Access policy assigned to workload identity</text></g><g stroke-linecap="round" transform="translate(1020.0035212765943 719.5233718154088) rotate(0 23.432803853426776 23.5)"><path d="M15.47 1.68 C19.83 -0.37, 26.09 -0.63, 30.69 0.84 C35.29 2.31, 40.36 6.21, 43.06 10.5 C45.76 14.8, 47.53 21.59, 46.88 26.61 C46.24 31.62, 43.17 37.14, 39.17 40.6 C35.16 44.06, 27.77 47.34, 22.85 47.37 C17.92 47.39, 13.22 44.11, 9.62 40.74 C6.03 37.37, 2.4 31.79, 1.27 27.17 C0.14 22.55, 0.14 17.33, 2.86 13.02 C5.59 8.72, 14.77 3.22, 17.61 1.33 C20.45 -0.57, 19.8 1.3, 19.89 1.66 M35.78 2.77 C40.56 4.45, 44.56 9.55, 46.23 14.01 C47.9 18.48, 47.54 24.55, 45.8 29.56 C44.06 34.56, 40.23 40.98, 35.8 44.05 C31.36 47.13, 24.31 48.61, 19.2 47.99 C14.1 47.37, 8.33 44.31, 5.18 40.31 C2.02 36.31, 0.14 29.33, 0.28 23.99 C0.41 18.64, 3.02 12.22, 6.01 8.24 C8.99 4.26, 13.4 1.16, 18.17 0.11 C22.93 -0.94, 32.16 1.65, 34.59 1.94 C37.03 2.23, 32.8 1.56, 32.79 1.86" stroke="#000000" stroke-width="1" fill="none"></path></g><g transform="translate(1037.8053071855484 731.4063624575249) rotate(0 5.5615234375 11.5)"><text x="5.5615234375" y="0" font-family="Helvetica, Segoe UI Emoji" font-size="20px" fill="#000000" text-anchor="middle" style="white-space: pre;" direction="ltr" dominant-baseline="text-before-edge">0</text></g></svg>